<svg xmlns="http://www.w3.org/2000/svg" viewBox="0 0 1200 400" width="1200" height="400">
  <defs>
    <linearGradient id="gradDiagonal" x1="0%" y1="100%" x2="100%" y2="0%">
      <stop offset="0%" stop-color="#0B2D45"/>
      <stop offset="100%" stop-color="#FF8A00"/>
    </linearGradient>
    <style>
      @import url('https://fonts.googleapis.com/css2?family=Cairo:wght@600;700&family=Montserrat:wght@500;700&display=swap');
      .ar-name { font-family:'Cairo',sans-serif; font-weight:700; fill:#0B2D45; font-size:64px; }
      .ar-tag { font-family:'Cairo',sans-serif; font-weight:500; fill:#0B2D45; font-size:22px; opacity:0.9; }
      .en-name { font-family:'Montserrat',sans-serif; font-weight:700; fill:#0B2D45; font-size:22px; }
      .en-tag { font-family:'Montserrat',sans-serif; font-weight:500; fill:#0B2D45; font-size:16px; opacity:0.8; }
    </style>
  </defs>

  <rect width="100%" height="100%" fill="transparent"/>

  <g transform="translate(70,60)">
    <path d="M60 320C40 260,40 200,120 140L200 140C120 200,120 260,140 320Z" fill="#0B2D45" transform="rotate(-18 160 190)"/>
    <path d="M300 40C360 80,420 140,460 240L400 280C360 180,300 120,260 90Z" fill="url(#gradDiagonal)" transform="rotate(12 360 180)"/>
    <path d="M -20 40 C 140 -40, 360 -40, 620 40" fill="none" stroke="url(#gradDiagonal)" stroke-width="14" stroke-linecap="round"/>
    <g fill="#fff" opacity="0.95">
      <rect x="120" y="18" width="38" height="6" rx="3"/>
      <rect x="205" y="8"  width="34" height="6" rx="3"/>
      <rect x="300" y="4"  width="42" height="6" rx="3"/>
      <rect x="405" y="8"  width="36" height="6" rx="3"/>
      <rect x="515" y="18" width="30" height="6" rx="3"/>
    </g>
  </g>

  <g transform="translate(420,80)">
    <text class="ar-name" x="660" y="0" text-anchor="end" direction="rtl">شحن إكس</text>
    <text class="ar-tag" x="660" y="74" text-anchor="end" direction="rtl">شحن ذكي بأسعار تنافسية</text>
    <g transform="translate(0,140)">
      <text class="en-name" x="0" y="0">SHAHN X</text>
      <text class="en-tag" x="0" y="28">Smart shipping at competitive rates</text>
    </g>
  </g>
</svg>
