<?xml version="1.0" encoding="utf-8"?>
<svg xmlns="http://www.w3.org/2000/svg"
     viewBox="0 0 500 500"
     width="500" height="500"
     role="img" aria-label="Shahn X icon">

  <defs>
    <linearGradient id="gradIcon" x1="0%" y1="100%" x2="100%" y2="0%">
      <stop offset="0%" stop-color="#0B2D45"/>
      <stop offset="100%" stop-color="#FF8A00"/>
    </linearGradient>

    <filter id="softShadowIcon" x="-30%" y="-30%" width="160%" height="160%">
      <feOffset dy="6" in="SourceAlpha" result="off"/>
      <feGaussianBlur in="off" stdDeviation="8" result="blur"/>
      <feColorMatrix in="blur" type="matrix"
        values="0 0 0 0 0
                0 0 0 0 0
                0 0 0 0 0
                0 0 0 0.16" result="shadow"/>
      <feBlend in="SourceGraphic" in2="shadow" mode="normal"/>
    </filter>
  </defs>

  <rect width="100%" height="100%" fill="transparent"/>

  <g transform="translate(50,40)" filter="url(#softShadowIcon)">
    <!-- left piece (navy) -->
    <path d="M50 340 C35 300, 35 250, 110 180 L170 180 C110 230, 110 290, 125 340 Z"
          fill="#0B2D45" transform="rotate(-15 160 200)"/>
    <!-- right piece (gradient) -->
    <path d="M300 40 C360 80, 420 140, 460 240 L395 290 C360 200, 300 120, 260 90 Z"
          fill="url(#gradIcon)" transform="rotate(14 320 170)"/>

    <!-- curved road above -->
    <path d="M -10 40 C80 -10, 250 -10, 420 40"
          fill="none" stroke="url(#gradIcon)" stroke-width="12" stroke-linecap="round"/>

    <!-- small dashes -->
    <g fill="#ffffff" opacity="0.95">
      <rect x="80" y="18" width="28" height="5" rx="3" transform="rotate(-8 80 18)"/>
      <rect x="160" y="10" width="26" height="5" rx="3" transform="rotate(-3 160 10)"/>
      <rect x="240" y="8" width="34" height="5" rx="3" transform="rotate(1 240 8)"/>
      <rect x="320" y="12" width="30" height="5" rx="3" transform="rotate(5 320 12)"/>
      <rect x="380" y="20" width="22" height="5" rx="3" transform="rotate(10 380 20)"/>
    </g>
  </g>

</svg>
