<svg xmlns="http://www.w3.org/2000/svg" width="128" height="128" viewBox="0 0 128 128" role="img" aria-label="شحن إكس">
  <defs>
    <linearGradient id="g4" x1="0" y1="0" x2="1" y2="1">
      <stop offset="0" stop-color="#00A76F"/>
      <stop offset="1" stop-color="#155EFB"/>
    </linearGradient>
    <filter id="s4" x="-20%" y="-20%" width="140%" height="140%">
      <feDropShadow dx="0" dy="2" stdDeviation="2" flood-opacity="0.12"/>
    </filter>
  </defs>
  <rect x="12" y="12" width="104" height="104" rx="24" fill="url(#g4)" filter="url(#s4)"/>
  <!-- شاحنة -->
  <g transform="translate(20,44)" fill="none" stroke="#F5F7FA" stroke-width="6" stroke-linecap="round" stroke-linejoin="round">
    <path d="M8 34h54a6 6 0 0 0 6-6V12H32a6 6 0 0 0-6 6v6H8a6 6 0 0 0-6 6v4a6 6 0 0 0 6 6z"/>
    <path d="M68 12h16l10 12v10a6 6 0 0 1-6 6h-20"/>
    <circle cx="24" cy="46" r="7" fill="#F5F7FA" stroke="none"/>
    <circle cx="68" cy="46" r="7" fill="#F5F7FA" stroke="none"/>
  </g>
  <!-- خطوط ديناميكية -->
  <path d="M28 64h18M22 74h22M20 54h20" stroke="#F5F7FA" stroke-width="4" stroke-linecap="round" opacity=".9"/>
</svg>
